<svg width="24" height="24" viewBox="0 0 24 24" fill="none" xmlns="http://www.w3.org/2000/svg">
<circle cx="12" cy="12" r="11.75" fill="#261516" stroke="#FF6F6F" stroke-width="0.5"/>
<path d="M9.1335 9.412C9.1815 8.668 9.4655 8.088 9.9855 7.672C10.5135 7.256 11.1855 7.048 12.0015 7.048C12.5615 7.048 13.0455 7.148 13.4535 7.348C13.8615 7.548 14.1695 7.82 14.3775 8.164C14.5855 8.508 14.6895 8.896 14.6895 9.328C14.6895 9.824 14.5575 10.248 14.2935 10.6C14.0295 10.952 13.7135 11.188 13.3455 11.308V11.356C13.8175 11.5 14.1855 11.764 14.4495 12.148C14.7135 12.524 14.8455 13.008 14.8455 13.6C14.8455 14.072 14.7375 14.492 14.5215 14.86C14.3055 15.228 13.9855 15.52 13.5615 15.736C13.1375 15.944 12.6295 16.048 12.0375 16.048C11.1735 16.048 10.4615 15.828 9.9015 15.388C9.3495 14.94 9.0535 14.3 9.0135 13.468H10.3335C10.3655 13.892 10.5295 14.24 10.8255 14.512C11.1215 14.776 11.5215 14.908 12.0255 14.908C12.5135 14.908 12.8895 14.776 13.1535 14.512C13.4175 14.24 13.5495 13.892 13.5495 13.468C13.5495 12.908 13.3695 12.512 13.0095 12.28C12.6575 12.04 12.1135 11.92 11.3775 11.92H11.0655V10.792H11.3895C12.0375 10.784 12.5295 10.676 12.8655 10.468C13.2095 10.26 13.3815 9.932 13.3815 9.484C13.3815 9.1 13.2575 8.796 13.0095 8.572C12.7615 8.34 12.4095 8.224 11.9535 8.224C11.5055 8.224 11.1575 8.34 10.9095 8.572C10.6615 8.796 10.5135 9.076 10.4655 9.412H9.1335Z" fill="#FF6F6F"/>
</svg>
